<svg width="48" height="48" viewBox="0 0 48 48" fill="none" xmlns="http://www.w3.org/2000/svg">
<circle cx="24" cy="24" r="24" fill="#0073F0" fillOpacity="0.16"/>
<mask id="mask0_3383_133399" style="mask-type:alpha" maskUnits="userSpaceOnUse" x="8" y="8" width="32" height="32">
<rect x="8" y="8" width="32" height="32" fill="#D9D9D9"/>
</mask>
<g mask="url(#mask0_3383_133399)">
<path d="M15.3993 33.3344L11.5993 29.5344C11.0839 29.0189 11.0839 28.1832 11.5993 27.6677C12.1148 27.1522 12.9505 27.1522 13.466 27.6677L15.366 29.5677L20.0816 24.8521C20.6055 24.3282 21.4561 24.332 21.9753 24.8605C22.4873 25.3816 22.4845 26.2177 21.9691 26.7354L15.3993 33.3344ZM15.3993 22.6677L11.5993 18.8677C11.0839 18.3522 11.0839 17.5165 11.5993 17.001C12.1148 16.4856 12.9505 16.4856 13.466 17.001L15.366 18.901L20.0816 14.1855C20.6055 13.6616 21.4561 13.6653 21.9753 14.1938C22.4873 14.715 22.4845 15.5511 21.9691 16.0688L15.3993 22.6677ZM26.666 30.6677C25.9296 30.6677 25.3327 30.0708 25.3327 29.3344C25.3327 28.598 25.9296 28.001 26.666 28.001H35.9993C36.7357 28.001 37.3327 28.598 37.3327 29.3344C37.3327 30.0708 36.7357 30.6677 35.9993 30.6677H26.666ZM26.666 20.001C25.9296 20.001 25.3327 19.4041 25.3327 18.6677C25.3327 17.9313 25.9296 17.3344 26.666 17.3344H35.9993C36.7357 17.3344 37.3327 17.9313 37.3327 18.6677C37.3327 19.4041 36.7357 20.001 35.9993 20.001H26.666Z" fill="#0073F0"/>
</g>
</svg>
